<?xml version="1.0" encoding="utf-8"?>
<!-- Generator: Adobe Illustrator 16.0.0, SVG Export Plug-In . SVG Version: 6.00 Build 0)  -->
<!DOCTYPE svg PUBLIC "-//W3C//DTD SVG 1.1//EN" "http://www.w3.org/Graphics/SVG/1.1/DTD/svg11.dtd">
<svg version="1.1" id="Layer_1" xmlns="http://www.w3.org/2000/svg" xmlns:xlink="http://www.w3.org/1999/xlink" x="0px" y="0px"
	 width="429.07px" height="381.396px" viewBox="0 0 429.07 381.396" enable-background="new 0 0 429.07 381.396"
	 xml:space="preserve">
<radialGradient id="SVGID_1_" cx="208.7505" cy="194" r="160" gradientUnits="userSpaceOnUse">
	<stop  offset="0.6304" style="stop-color:#FFE169"/>
	<stop  offset="1" style="stop-color:#FAAE3F"/>
	<stop  offset="1" style="stop-color:#F58D59"/>
</radialGradient>
<circle fill="url(#SVGID_1_)" cx="208.75" cy="194" r="160"/>
<path fill="#9B5925" d="M170.612,172.899l-59.308-32.766l34.121,37.812l-39.524,37.812l65.936-31.564
	c0.122-0.259,0.263-0.519,0.442-0.779c1.641-2.391,2.438-4.923,2.572-7.487C172.637,175.835,171.223,174.537,170.612,172.899z"/>
<path fill="#9B5925" d="M249.954,170.924l59.309-32.766l-34.121,37.812l39.523,37.812l-65.936-31.564
	c-0.121-0.259-0.262-0.519-0.441-0.779c-1.641-2.391-2.438-4.923-2.572-7.487C247.93,173.859,249.344,172.562,249.954,170.924z"/>
<g>
	<g>
		<path fill="#9B5925" d="M166.531,103.35c-10.273,27.646-45.76,30.244-69.808,22.039c-3.06-1.044-4.363,3.787-1.329,4.821
			c26.978,9.205,64.705,4.752,75.958-25.531C172.478,101.65,167.644,100.355,166.531,103.35L166.531,103.35z"/>
	</g>
</g>
<g>
	<g>
		<path fill="#9B5925" d="M247.982,104.679c11.253,30.283,48.98,34.736,75.959,25.531c3.033-1.035,1.73-5.865-1.33-4.821
			c-24.047,8.205-59.534,5.606-69.807-22.039C251.691,100.355,246.857,101.65,247.982,104.679L247.982,104.679z"/>
	</g>
</g>
<polygon fill="#9B5E26" points="128.679,220.023 110.929,237.52 149.938,275.976 174.429,248 195.772,275.976 214.43,248 
	236.071,275.976 254.186,248 275.764,275.976 310.407,228.783 290.901,220.023 274.334,237.52 254.186,220.023 236.071,248 
	215.764,220.023 194.47,237.52 175.098,220.023 149.938,237.52 "/>
</svg>
